# xmcd CD database file
#
# Track frame offsets:
#	150
#	15895
#	31582
#	42915
#	52427
#	62647
#	83205
#	99607
#	110710
#	119960
#	133457
#	145320
#	156325
#
# Disc length: 2279 seconds
#
# Revision: 0
# Processed by: cddbd v1.5.2PL0 Copyright (c) Steve Scherf et al.
# Submitted via: CDex 1.70beta2
#
DISCID=c008e50d
DTITLE=Jenny and Josie - Now And Then
DYEAR=1900
DGENRE=Country
TTITLE0=Now And Then
TTITLE1=Mary On The Wild Moor
TTITLE2=When The Robins Come Home
TTITLE3=Who Were You Thinkin' Of
TTITLE4=Salt Water Blues
TTITLE5=Daddy
TTITLE6=The Isle Of N.F.L.D.
TTITLE7=Me Cocks Me Own
TTITLE8=I Wish I Was In Newfie
TTITLE9=My Old Homestead
TTITLE10=I Already Know
TTITLE11=Cincinatti Waltz
TTITLE12=New Patches
EXTD=
EXTT0=
EXTT1=
EXTT2=
EXTT3=
EXTT4=
EXTT5=
EXTT6=
EXTT7=
EXTT8=
EXTT9=
EXTT10=
EXTT11=
EXTT12=
PLAYORDER=
